<svg xmlns="http://www.w3.org/2000/svg" width="64" height="64" fill="none" viewBox="0 -0.5 25 25"><path stroke="#000" stroke-linecap="round" stroke-linejoin="round" stroke-width="1.5" d="M19.5 19h-10a4 4 0 0 1-4-4V5"/><path fill="#000" d="M15.619 7.25a.75.75 0 0 0 0 1.5zm3.881 1.5a.75.75 0 0 0 0-1.5zm.75-.75a.75.75 0 0 0-1.5 0zm-1.5 3.607a.75.75 0 0 0 1.5 0zm1.326-3.127a.75.75 0 0 0-1.152-.96zM15.5 12.807l.504.556a1 1 0 0 0 .072-.076zm-1.569.061-.465.589.006.004zm-1.049-.828.465-.589-.004-.003zm-1.682.183-.577-.479-.022.028zm-.128.152.535.525.012-.012zm-3.241 2.234a.75.75 0 0 0 1.07 1.05zm7.788-5.859H19.5v-1.5h-3.881zM18.75 8v3.607h1.5V8zm.174-.48-4 4.807 1.152.96 4-4.807zm-3.928 4.731a.47.47 0 0 1-.606.024l-.918 1.186a1.97 1.97 0 0 0 2.532-.098zm-.6.028-1.05-.828-.929 1.178 1.05.828zm-1.053-.83a1.965 1.965 0 0 0-2.72.295l1.154.958a.465.465 0 0 1 .644-.07zm-2.742.323a1 1 0 0 1-.076.09l1.094 1.026q.096-.102.18-.214zm-.065.078-2.705 2.759 1.07 1.05 2.706-2.759z"/></svg>